<svg width="24" height="24" viewBox="0 0 24 24" fill="none" xmlns="http://www.w3.org/2000/svg">
<path d="M11.745 0C8.95609 0.000118572 6.25827 1.01769 4.1342 2.87064C2.01014 4.72359 0.598437 7.29101 0.151698 10.1135C-0.295041 12.936 0.252334 15.8294 1.69588 18.2759C2.98196 20.4556 4.9046 22.1539 7.17966 23.138C7.7372 23.3792 8.57526 23.6983 8.79478 23.1318C8.82442 23.0554 8.83811 22.9738 8.83811 22.8949C8.83811 21.7299 7.73204 20.9488 6.59481 20.696C5.43494 20.4381 5.03329 19.6961 4.87417 19.2372C4.77117 18.9769 4.64433 18.7282 4.49588 18.4944C4.0436 17.782 2.62894 16.8465 3.46721 16.7498C3.52233 16.7434 3.58492 16.7396 3.65563 16.7385C4.03121 16.7803 4.39144 16.9143 4.70579 17.1291C5.02013 17.344 5.27933 17.6334 5.46142 17.9728C5.62206 18.2686 5.83805 18.5291 6.09704 18.7392C6.35603 18.9494 6.65291 19.105 6.97068 19.1973C7.28845 19.2896 7.62085 19.3167 7.94885 19.2771C8.15649 19.2519 8.35978 19.2004 8.55411 19.124C8.76638 19.0405 8.88755 18.8254 8.93838 18.6031C9.06831 18.0347 8.76953 17.2463 8.20521 17.0998C6.11159 16.5565 4.28693 15.175 4.28693 11.4099C4.27764 10.7364 4.40999 10.0752 4.66822 9.46864C5.04086 8.59337 5.2342 7.60956 5.24949 6.65839C5.26632 5.61128 6.3167 4.89828 7.27529 5.31998C7.37138 5.36226 7.47188 5.40925 7.57683 5.46144C8.41082 5.87617 9.35366 6.04387 10.2761 5.91471C11.1557 5.79155 12.0462 5.77735 12.9283 5.87212C14.0722 5.99502 15.2295 5.77195 16.2828 5.30928C16.3823 5.26557 16.4771 5.22701 16.5672 5.19301C17.4054 4.87673 18.2046 5.4498 18.2828 6.34226C18.383 7.48509 18.619 8.68087 18.9969 9.76407C19.1794 10.2872 19.2708 10.8443 19.2617 11.4099C19.2617 15.3248 17.2913 16.6577 15.1002 17.1567C14.6151 17.2672 14.3693 17.9124 14.536 18.381C14.6728 18.7654 14.7273 19.1755 14.6959 19.5834C14.6959 21.1941 14.6812 22.4886 14.6812 22.895C14.6812 23.2111 14.9014 23.5874 15.4886 23.467C18.1297 22.5553 20.3687 20.7109 21.8061 18.263C23.2435 15.8152 23.7857 12.9233 23.3359 10.1036C22.886 7.28381 21.4735 4.71973 19.3503 2.86903C17.2272 1.01834 14.5317 0.00148708 11.745 0Z" fill="black"/>
</svg>
