<svg width="24" height="24" viewBox="0 0 24 24" fill="none" xmlns="http://www.w3.org/2000/svg">
<g clip-path="url(#clip0_1_844)">
<path d="M5.20588 14.1953L4.38823 17.2477L1.39972 17.3109C0.506595 15.6544 0 13.7591 0 11.745C0 9.79739 0.473654 7.96077 1.31324 6.34358H1.31388L3.97449 6.83137L5.14 9.47601C4.89606 10.1872 4.7631 10.9506 4.7631 11.745C4.76319 12.6072 4.91937 13.4332 5.20588 14.1953Z" fill="#FBBB00"/>
<path d="M23.2848 9.55089C23.4197 10.2614 23.49 10.9951 23.49 11.745C23.49 12.5859 23.4016 13.4061 23.2332 14.1973C22.6614 16.8896 21.1675 19.2405 19.0979 20.9042L19.0973 20.9035L15.7461 20.7325L15.2718 17.7717C16.6451 16.9664 17.7183 15.706 18.2836 14.1973H12.0032V9.55089H23.2848Z" fill="#518EF8"/>
<path d="M19.0972 20.9035L19.0979 20.9042C17.0851 22.522 14.5283 23.49 11.745 23.49C7.27222 23.49 3.38348 20.99 1.39972 17.311L5.20588 14.1953C6.19774 16.8425 8.75131 18.7268 11.745 18.7268C13.0318 18.7268 14.2373 18.379 15.2717 17.7717L19.0972 20.9035Z" fill="#28B446"/>
<path d="M19.2418 2.70392L15.4369 5.81891C14.3663 5.14972 13.1008 4.76315 11.745 4.76315C8.68355 4.76315 6.08221 6.73397 5.14004 9.47601L1.31388 6.34359H1.31324C3.26796 2.57486 7.20574 0 11.745 0C14.5948 0 17.2077 1.01512 19.2418 2.70392Z" fill="#F14336"/>
</g>
<defs>
<clipPath id="clip0_1_844">
<rect width="23.49" height="23.49" rx="11.745" fill="white"/>
</clipPath>
</defs>
</svg>
